<?xml version="1.0" encoding="UTF-8" standalone="no"?>
<!DOCTYPE svg PUBLIC "-//W3C//DTD SVG 1.1//EN" "http://www.w3.org/Graphics/SVG/1.1/DTD/svg11.dtd">
<svg width="100%" height="100%" viewBox="0 0 1080 1080" version="1.1" xmlns="http://www.w3.org/2000/svg" xmlns:xlink="http://www.w3.org/1999/xlink" xml:space="preserve" xmlns:serif="http://www.serif.com/" style="fill-rule:evenodd;clip-rule:evenodd;stroke-linejoin:round;stroke-miterlimit:2;">
    <g transform="matrix(1,0,0,1,0.356512,-66.8806)">
        <g id="Layer7">
            <circle cx="297.073" cy="870.867" r="182.26" style="fill:rgb(81,153,93);"/>
        </g>
    </g>
    <g transform="matrix(1.3967,0,0,1.3967,-14.4811,-240.082)">
        <path d="M551.45,586.419C540.801,576.479 558.49,553.141 574.954,564.014C629.153,599.809 693.519,699.705 707.455,789.263C711.727,816.722 675.894,822.196 672.463,797.669C663.077,730.561 621.149,651.473 551.45,586.419Z" style="fill:rgb(237,236,236);"/>
    </g>
    <g transform="matrix(1.3967,0,0,1.3967,-14.4811,-240.082)">
        <g id="Layer6">
            <path d="M403.181,502.506C386.049,599.646 520.803,819.032 477.835,874.67C445.458,916.595 344.613,858.23 290.027,784.859C208.723,684.474 285.293,560.138 306.845,503.47C285.304,486.139 180.6,453.888 221.061,343.677C161.048,236.955 177.542,215.561 304.652,264.243C350.271,248.106 387.812,255.842 415.014,261.166C537.111,225.579 549.636,234.946 500.296,338.357C539.809,438.566 441,487.965 403.181,502.506Z" style="fill:rgb(237,236,236);"/>
        </g>
    </g>
    <g transform="matrix(1.3967,0,0,1.3967,-14.4811,-240.082)">
        <g id="Layer4">
            <path d="M466.419,673.063C454.607,663.306 468.102,647.102 483.14,657.642C520.073,683.527 569.925,760.086 575.692,826.448C576.983,841.31 555.08,845.562 552.432,828.462C542.022,761.236 509.889,708.974 466.419,673.063Z" style="fill:rgb(237,236,236);"/>
        </g>
    </g>
    <g transform="matrix(1.3967,0,0,1.3967,-14.4811,-240.082)">
        <g id="Layer3">
            <path d="M507.121,631.267C497.837,621.641 512.094,607.213 526.382,612.998C563.501,628.024 651.012,765.013 634.522,819.165C631.902,827.768 609.565,833.762 608.262,816.145C603.255,748.505 572.847,699.41 507.121,631.267Z" style="fill:rgb(237,236,236);"/>
        </g>
    </g>
</svg>
